<svg width="24" height="25" viewBox="0 0 24 25" fill="none" xmlns="http://www.w3.org/2000/svg">
<path d="M9.32353 22.9839C10.452 21.8488 11.0155 20.2696 10.8603 18.6765L10.8882 18.703C10.7298 16.8276 11.4065 14.9778 12.7376 13.6473C14.0687 12.3167 15.9188 11.6409 17.7941 11.8001L17.7662 11.7736C20.0356 11.9862 22.1946 10.7529 23.1642 8.6901C24.1339 6.62729 23.7058 4.17796 22.0941 2.56623C20.4824 0.954501 18.0331 0.526496 15.9703 1.49612C13.9074 2.46575 12.6742 4.62478 12.8868 6.89417L12.8603 6.8677C13.0186 8.74254 12.3423 10.5918 11.0119 11.9222C9.68144 13.2526 7.83218 13.9289 5.95735 13.7706L5.98382 13.7971C3.48912 13.5734 1.16818 15.095 0.378454 17.4719C-0.411274 19.8489 0.537647 22.4569 2.67022 23.7705C4.8028 25.0842 7.55886 24.7585 9.32647 22.9839H9.32353Z" fill="#5454D4"/>
</svg>
